<?xml version="1.0" encoding="utf-8"?>
<!-- Generator: Adobe Illustrator 23.0.3, SVG Export Plug-In . SVG Version: 6.00 Build 0)  -->
<svg version="1.1" id="Capa_1" xmlns="http://www.w3.org/2000/svg" xmlns:xlink="http://www.w3.org/1999/xlink" x="0px" y="0px"
	 viewBox="0 0 32 55" enable-background="new 0 0 32 55" xml:space="preserve">
<path fill="#CECCCA" d="M13.9,41.8c-0.3,6.1-2,8.9-2,8.9h4h4c0,0-1.7-2.8-2-8.8c0-0.7-0.6-1.2-1.3-1.2h-1.6
	C14.5,40.7,14,41.2,13.9,41.8z"/>
<path fill="#DDDDDD" d="M13.9,41.8c-0.3,6.1-2,8.9-2,8.9h4h4c0,0-1.7-2.8-2-8.8c0-0.7-0.6-1.2-1.3-1.2h-1.6
	C14.5,40.7,14,41.2,13.9,41.8z"/>
<path fill="#CECCCA" d="M16.8,40.7h-1.6c-0.7,0-1.2,0.5-1.2,1.2c-0.3,6.1-2,8.9-2,8.9h4h0.1c0,0,1.7-2.8,2-8.9
	C18,41.2,17.5,40.7,16.8,40.7z"/>
<path fill="#FAC149" d="M22.1,50.4H9.9c-1.1,0-2,0.9-2,2.1v1.4c2.6,0.7,5.3,1.1,8.2,1.1s5.6-0.4,8.2-1.1v-1.4
	C24.2,51.4,23.3,50.4,22.1,50.4z"/>
<path fill="#F8A748" d="M14.7,52.5c0-1.1,0.9-2.1,2-2.1H9.9c-1.1,0-2,0.9-2,2.1v1.4c2.2,0.6,4.5,1,6.9,1.1V52.5z"/>
<path fill="#CECCCA" d="M16,41.8c-0.6,0-1.1-0.5-1.1-1.1v-5.2c0-0.6,0.5-1.1,1.1-1.1s1.1,0.5,1.1,1.1v5.2
	C17.1,41.3,16.6,41.8,16,41.8z"/>
<path fill="#FAC149" d="M16,35.4L16,35.4c-5.4,0-9.9-4.5-9.9-10V10c0-5.5,4.4-10,9.9-10l0,0c5.4,0,9.9,4.5,9.9,10v15.4
	C25.9,30.9,21.4,35.4,16,35.4z"/>
<path fill="#F8A748" d="M10.3,25.4V10c0-4.8,3.4-8.8,7.8-9.8C17.4,0.1,16.7,0,16,0l0,0c-5.4,0-9.9,4.5-9.9,10v15.4
	c0,5.5,4.4,10,9.9,10l0,0c0.7,0,1.4-0.1,2.1-0.2C13.6,34.2,10.3,30.2,10.3,25.4z"/>
<path fill="#EFEFEF" d="M16,41.8c-8.2,0-15.1-6.2-16-14.5c-0.2-1.6,1.1-3,2.6-3h5.2c0.6,0,1.1,0.5,1.1,1.1c0,0.6-0.5,1.1-1.1,1.1
	H2.6c-0.2,0-0.4,0.2-0.4,0.4C3,34.1,8.9,39.5,16,39.5S29,34.1,29.7,27c0-0.2-0.2-0.4-0.4-0.4h-5.2c-0.6,0-1.1-0.5-1.1-1.1
	c0-0.6,0.5-1.1,1.1-1.1h5.2c1.6,0,2.8,1.4,2.6,3C31.1,35.6,24.2,41.8,16,41.8z"/>
<g>
	<path fill="#F38D1A" d="M10.8,11.2H6.2C5.6,11.2,5,10.7,5,10c0-0.6,0.5-1.1,1.1-1.1h4.6c0.6,0,1.1,0.5,1.1,1.1
		C11.9,10.7,11.4,11.2,10.8,11.2z"/>
	<path fill="#F38D1A" d="M10.8,16.3H6.2c-0.6,0-1.1-0.5-1.1-1.1C5,14.5,5.6,14,6.2,14h4.6c0.6,0,1.1,0.5,1.1,1.1
		C11.9,15.8,11.4,16.3,10.8,16.3z"/>
	<path fill="#F38D1A" d="M10.8,21.5H6.2c-0.6,0-1.1-0.5-1.1-1.1s0.5-1.1,1.1-1.1h4.6c0.6,0,1.1,0.5,1.1,1.1
		C11.9,20.9,11.4,21.5,10.8,21.5z"/>
	<path fill="#F38D1A" d="M10.8,26.6H6.2c-0.6,0-1.1-0.5-1.1-1.1c0-0.6,0.5-1.1,1.1-1.1h4.6c0.6,0,1.1,0.5,1.1,1.1
		C11.9,26.1,11.4,26.6,10.8,26.6z"/>
	<path fill="#F38D1A" d="M25.9,11.2h-4.6c-0.6,0-1.1-0.5-1.1-1.1c0-0.6,0.5-1.1,1.1-1.1h4.6c0.6,0,1.1,0.5,1.1,1.1
		C27,10.7,26.5,11.2,25.9,11.2z"/>
	<path fill="#F38D1A" d="M25.9,16.3h-4.6c-0.6,0-1.1-0.5-1.1-1.1c0-0.6,0.5-1.1,1.1-1.1h4.6c0.6,0,1.1,0.5,1.1,1.1
		C27,15.8,26.5,16.3,25.9,16.3z"/>
	<path fill="#F38D1A" d="M25.9,21.5h-4.6c-0.6,0-1.1-0.5-1.1-1.1s0.5-1.1,1.1-1.1h4.6c0.6,0,1.1,0.5,1.1,1.1
		C27,20.9,26.5,21.5,25.9,21.5z"/>
	<path fill="#F38D1A" d="M25.9,26.6h-4.6c-0.6,0-1.1-0.5-1.1-1.1c0-0.6,0.5-1.1,1.1-1.1h4.6c0.6,0,1.1,0.5,1.1,1.1
		C27,26.1,26.5,26.6,25.9,26.6z"/>
	<path fill="#F38D1A" d="M16,18.9c-0.6,0-1.1-0.5-1.1-1.1c0-0.5,0.3-1,0.9-1.1c0.1,0,0.3,0,0.4,0c0.5,0.1,0.9,0.6,0.9,1.1
		C17.1,18.4,16.6,18.9,16,18.9z"/>
</g>
</svg>
