<svg xmlns="http://www.w3.org/2000/svg" viewBox="0 0 64 64"><defs><style>.cls-1{fill:#80400f;}</style></defs><title>settings</title><g id="Слой_2" data-name="Слой 2"><g id="Слой_2-2" data-name="Слой 2"><path class="cls-1" d="M64,32h0a4.72,4.72,0,0,0-4.72-4.72h-3.7A23.79,23.79,0,0,0,52,18.73l2.68-2.68a4.73,4.73,0,0,0,0-6.68h0a4.73,4.73,0,0,0-6.68,0L45.22,12.1a23.88,23.88,0,0,0-8.5-3.49V4.72A4.72,4.72,0,0,0,32,0h0a4.72,4.72,0,0,0-4.72,4.72V8.61a23.88,23.88,0,0,0-8.5,3.49L16.05,9.37a4.73,4.73,0,0,0-6.68,0h0a4.73,4.73,0,0,0,0,6.68l2.68,2.68a23.79,23.79,0,0,0-3.63,8.55H4.72A4.72,4.72,0,0,0,0,32H0a4.72,4.72,0,0,0,4.72,4.72H8.34a23.89,23.89,0,0,0,3.53,8.74L9.37,48a4.73,4.73,0,0,0,0,6.68h0a4.73,4.73,0,0,0,6.68,0l2.44-2.44a23.81,23.81,0,0,0,8.79,3.67v3.42A4.72,4.72,0,0,0,32,64h0a4.72,4.72,0,0,0,4.72-4.72V55.86a23.81,23.81,0,0,0,8.79-3.67L48,54.63a4.73,4.73,0,0,0,6.68,0h0a4.73,4.73,0,0,0,0-6.68l-2.5-2.49a23.89,23.89,0,0,0,3.53-8.74h3.62A4.72,4.72,0,0,0,64,32ZM34.54,47A15,15,0,1,1,46.77,34.77,15,15,0,0,1,34.54,47Z"/></g></g></svg>